HIERARCHY
ROOT Hips
{
	OFFSET 0.000000 0.000000 0.000000
	CHANNELS 6 Xposition Yposition Zposition Zrotation Yrotation Xrotation 
	JOINT LeftUpLeg_virtual
	{
		OFFSET 0.000000 0.000000 0.000000
		CHANNELS 3 Zrotation Yrotation Xrotation
		JOINT LeftUpLeg
		{
			OFFSET 8.479694 -4.795517 -0.379053
			CHANNELS 3 Zrotation Yrotation Xrotation
			JOINT LeftLeg
			{
				OFFSET 0.485052 -32.551468 0.112863
				CHANNELS 3 Zrotation Yrotation Xrotation
				JOINT LeftFoot
				{
					OFFSET 0.438033 -32.635670 -3.012641
					CHANNELS 3 Zrotation Yrotation Xrotation
					JOINT LeftToeBase
					{
						OFFSET 0.970169 -13.225353 11.864223
						CHANNELS 3 Zrotation Yrotation Xrotation
						End Site
						{
							OFFSET 0.000000 0.000000 0.000000
						}
					}
				}
			}
		}
	}
	JOINT RightUpLeg_virtual
	{
		OFFSET 0.000000 0.000000 0.000000
		CHANNELS 3 Zrotation Yrotation Xrotation
		JOINT RightUpLeg
		{
			OFFSET -8.479694 -4.795517 -0.379053
			CHANNELS 3 Zrotation Yrotation Xrotation
			JOINT RightLeg
			{
				OFFSET -0.484100 -32.551483 0.112903
				CHANNELS 3 Zrotation Yrotation Xrotation
				JOINT RightFoot
				{
					OFFSET -0.438985 -32.635651 -3.012681
					CHANNELS 3 Zrotation Yrotation Xrotation
					JOINT RightToeBase
					{
						OFFSET -0.970169 -13.225354 11.864223
						CHANNELS 3 Zrotation Yrotation Xrotation
						End Site
						{
							OFFSET 0.000000 0.000000 0.000000
						}
					}
				}
			}
		}
	}
	JOINT Spine_virtual
	{
		OFFSET 0.000000 0.000000 0.000000
		CHANNELS 3 Zrotation Yrotation Xrotation
		JOINT Spine
		{
			OFFSET 0.000000 7.722015 1.166203
			CHANNELS 3 Zrotation Yrotation Xrotation
			JOINT Spine1
			{
				OFFSET 0.000000 12.024086 0.248766
				CHANNELS 3 Zrotation Yrotation Xrotation
				JOINT Spine2
				{
					OFFSET -0.000000 11.503036 -0.491240
					CHANNELS 3 Zrotation Yrotation Xrotation
					JOINT Neck_virtual
					{
						OFFSET 0.000000 0.000000 0.000000
						CHANNELS 3 Zrotation Yrotation Xrotation
						JOINT Neck
						{
							OFFSET 0.000000 18.430687 -3.123054
							CHANNELS 3 Zrotation Yrotation Xrotation
							JOINT Head
							{
								OFFSET -0.000000 9.051071 1.034021
								CHANNELS 3 Zrotation Yrotation Xrotation
								End Site
								{
									OFFSET 0.000000 0.000000 0.000000
								}
							}
						}
					}
					JOINT LeftShoulder_virtual
					{
						OFFSET 0.000000 0.000000 0.000000
						CHANNELS 3 Zrotation Yrotation Xrotation
						JOINT LeftShoulder
						{
							OFFSET 6.197824 13.665230 -4.064723
							CHANNELS 3 Zrotation Yrotation Xrotation
							JOINT LeftArm
							{
								OFFSET 7.778132 -0.187073 -1.709282
								CHANNELS 3 Zrotation Yrotation Xrotation
								JOINT LeftForeArm
								{
									OFFSET 21.954697 0.000000 -2.041093
									CHANNELS 3 Zrotation Yrotation Xrotation
									JOINT LeftHand
									{
										OFFSET 22.992908 0.000000 -0.870901
										CHANNELS 3 Zrotation Yrotation Xrotation
										End Site
										{
											OFFSET 0.000000 0.000000 0.000000
										}
									}
								}
							}
						}
					}
					JOINT RightShoulder_virtual
					{
						OFFSET 0.000000 0.000000 0.000000
						CHANNELS 3 Zrotation Yrotation Xrotation
						JOINT RightShoulder
						{
							OFFSET -6.197824 13.665230 -4.064723
							CHANNELS 3 Zrotation Yrotation Xrotation
							JOINT RightArm
							{
								OFFSET -7.778132 -0.187073 -1.709282
								CHANNELS 3 Zrotation Yrotation Xrotation
								JOINT RightForeArm
								{
									OFFSET -21.954697 0.000000 -2.041093
									CHANNELS 3 Zrotation Yrotation Xrotation
									JOINT RightHand
									{
										OFFSET -22.992908 0.000000 -0.870901
										CHANNELS 3 Zrotation Yrotation Xrotation
										End Site
										{
											OFFSET 0.000000 0.000000 0.000000
										}
									}
								}
							}
						}
					}
				}
			}
		}
	}
}
MOTION
Frames: 11
Frame Time: 0.033333
50.388943 80.385368 -92.979340 179.458753 -68.537103 -179.477304 -2.759631 -3.970737 8.652007 16.587528 -13.799505 -35.955222 4.089166 7.116121 35.476614 -5.636548 -5.858710 -1.292926 0.000000 0.000000 0.000000 0.928077 -5.828078 8.766085 2.538636 2.504451 -18.781350 0.193475 3.528686 27.752211 6.551377 10.563865 -10.827028 0.000000 0.000000 0.000000 1.774666 -1.016568 -4.295398 1.267162 2.675980 -5.163251 -2.221931 -2.330623 8.830375 0.026379 0.087573 0.013755 -2.418225 -0.885934 9.473076 -1.558205 -3.681930 0.045001 0.000000 0.000000 0.000000 -0.382847 -0.490914 6.390890 -5.415350 -1.391691 4.364454 -62.544288 9.070366 6.446753 -0.236636 -31.197155 5.735091 0.000000 0.000000 0.000000 -5.334913 0.910308 5.622572 31.184745 2.015504 2.357366 52.154706 16.884957 7.989837 -4.314103 25.702820 -4.206968 0.000000 0.000000 0.000000 
50.661304 80.389687 -92.759529 179.132434 -68.494565 -179.158471 -2.783370 -3.598313 8.871924 16.831495 -13.437166 -35.703591 4.238945 7.075273 35.754927 -5.532607 -5.665925 -1.259277 0.000000 0.000000 0.000000 1.037684 -5.972357 8.654934 2.852094 2.081866 -19.116467 0.226318 3.173815 27.936662 6.592559 10.458900 -10.573204 0.000000 0.000000 0.000000 1.618240 -0.950458 -4.217801 1.172670 2.649872 -5.163046 -2.220089 -2.320759 8.835913 0.024243 0.136041 -0.019352 -2.499766 -1.001904 9.527748 -1.628135 -3.514690 0.004110 0.000000 0.000000 0.000000 -0.456704 -0.421114 6.482582 -5.446480 -1.432903 4.376595 -62.179406 8.830514 6.255329 -0.245236 -31.265334 5.688548 0.000000 0.000000 0.000000 -5.319761 1.048619 5.668943 31.422453 1.862221 2.243553 52.495222 16.193979 8.600778 -4.212162 25.275122 -4.146348 0.000000 0.000000 0.000000 
51.020832 80.413078 -92.442101 179.505240 -68.912538 -179.540210 -2.698987 -3.531225 9.093491 17.428213 -12.813270 -35.302106 4.524164 7.147847 36.416199 -5.383320 -5.420541 -1.318644 0.000000 0.000000 0.000000 1.034108 -5.667979 8.763912 2.987963 2.122811 -19.348292 0.169746 3.389092 27.585660 6.454715 10.215579 -10.323816 0.000000 0.000000 0.000000 1.533543 -1.014258 -4.123696 1.296545 2.616301 -5.130035 -2.322070 -2.308993 8.823617 0.027502 0.126209 0.013594 -2.521784 -1.118308 9.447819 -1.584647 -3.468160 -0.017153 0.000000 0.000000 0.000000 -0.561154 -0.419979 6.426406 -5.306132 -1.601221 4.354366 -61.548037 8.423192 5.900571 -0.403276 -31.882565 5.849660 0.000000 0.000000 0.000000 -5.391376 1.051921 5.560617 31.759919 1.770471 2.246380 53.076625 14.869004 9.790197 -4.095719 24.345810 -3.998744 0.000000 0.000000 0.000000 
51.418213 80.466309 -92.151756 179.650682 -69.197985 -179.695816 -2.660187 -3.693041 9.312747 18.032440 -11.562024 -34.698194 4.904542 7.475521 37.074540 -5.156549 -5.097879 -1.435726 0.000000 0.000000 0.000000 0.968351 -5.571676 8.821722 3.057100 1.977968 -19.636603 0.167881 3.687459 27.399473 6.313002 10.000008 -9.997334 0.000000 0.000000 0.000000 1.381292 -1.093808 -4.064698 1.354408 2.524029 -5.091403 -2.397507 -2.335579 8.763079 0.110587 0.099242 -0.032493 -2.560680 -1.031408 9.423925 -1.527365 -3.396063 -0.064622 0.000000 0.000000 0.000000 -0.611470 -0.424660 6.367652 -5.308441 -1.678491 4.576064 -60.749000 7.788845 5.716795 -0.592585 -32.949789 6.011635 0.000000 0.000000 0.000000 -5.458778 1.077098 5.587189 32.028280 1.804550 2.390448 53.810474 13.286229 11.230059 -4.020742 23.173889 -3.933800 0.000000 0.000000 0.000000 
51.764069 80.514587 -91.895195 179.552150 -69.405158 -179.665940 -2.752465 -3.603659 9.427040 18.337554 -9.857183 -33.829906 5.235381 7.563139 37.466716 -4.907895 -4.758314 -1.436306 0.000000 0.000000 0.000000 0.896790 -5.567561 8.763941 3.112955 1.753938 -19.989425 0.249973 3.960515 27.558405 6.224008 9.849749 -9.835409 0.000000 0.000000 0.000000 1.149170 -1.101992 -4.053205 1.334675 2.439083 -5.060488 -2.334485 -2.359480 8.728990 0.013549 0.073505 -0.015032 -2.528969 -0.843870 9.284064 -1.511311 -3.286758 -0.083166 0.000000 0.000000 0.000000 -0.563318 -0.430479 6.195863 -5.243121 -1.705768 4.738025 -59.895254 6.942648 5.367955 -0.880519 -34.316195 6.296596 0.000000 0.000000 0.000000 -5.431634 1.106344 5.461730 32.295764 1.796184 2.553692 54.665364 11.354677 12.583422 -3.882925 22.033970 -3.812874 0.000000 0.000000 0.000000 
52.033474 80.531044 -91.582954 179.584046 -69.709792 -179.807312 -2.869489 -3.357527 9.489960 18.402111 -7.848881 -32.632223 5.575736 7.993970 37.288147 -4.755442 -4.589462 -1.483644 0.000000 0.000000 0.000000 0.849811 -5.418061 8.743535 3.201050 1.324119 -20.360869 0.274199 4.114135 27.926449 6.233157 9.706492 -9.787405 0.000000 0.000000 0.000000 0.911559 -0.881693 -4.004623 1.356727 2.330784 -5.098840 -2.266675 -2.383777 8.665557 0.041353 0.097070 -0.003151 -2.539685 -1.040731 9.100725 -1.516975 -2.972471 -0.159887 0.000000 0.000000 0.000000 -0.589879 -0.387786 6.072717 -5.184759 -1.837818 4.913932 -58.997726 5.746523 5.056651 -1.336184 -35.740252 6.598833 0.000000 0.000000 0.000000 -5.489356 0.994133 5.290497 32.515730 1.699630 2.854965 55.303253 9.425828 13.328797 -3.680943 21.140431 -3.681086 0.000000 0.000000 0.000000 
52.168491 80.529968 -91.206375 179.448522 -70.248018 -179.618361 -3.141410 -2.934568 9.497909 18.048935 -5.160744 -31.284698 6.138828 8.518377 36.114632 -3.689069 -3.493765 -0.081377 0.000000 0.000000 0.000000 0.712669 -5.054766 8.707544 3.179500 0.834022 -20.742386 0.334990 4.166456 28.364394 6.267351 9.490188 -9.884699 0.000000 0.000000 0.000000 0.646218 -0.543483 -3.967921 1.322789 2.203567 -5.236560 -2.219967 -2.402226 8.549989 0.013422 0.140892 -0.022270 -2.418597 -0.913043 9.003750 -1.499049 -2.831765 -0.135583 0.000000 0.000000 0.000000 -0.429486 -0.453651 5.996951 -5.211398 -1.983455 5.100877 -58.166888 4.231101 4.653301 -1.743399 -37.245397 6.901232 0.000000 0.000000 0.000000 -5.419407 0.966979 5.250267 32.623716 1.529519 3.216580 55.841243 7.415023 13.908249 -3.721281 20.683420 -3.642939 0.000000 0.000000 0.000000 
52.104710 80.514473 -90.717972 179.781343 -71.062709 -179.920105 -3.524345 -2.682097 9.551872 17.313512 -1.771276 -29.739405 7.402198 9.553882 33.984856 -1.845396 -1.772008 2.040853 0.000000 0.000000 0.000000 0.587850 -4.661988 8.762936 3.143323 0.289277 -20.906307 0.362090 4.114266 28.618254 6.423261 9.225286 -10.004672 0.000000 0.000000 0.000000 0.475856 -0.225691 -3.898768 1.344750 2.047604 -5.376721 -2.136481 -2.461324 8.482185 -0.031491 0.126975 -0.042903 -2.350104 -1.225117 8.836021 -1.572861 -2.473143 -0.154174 0.000000 0.000000 0.000000 -0.349811 -0.552498 5.846059 -5.252927 -2.149538 5.309779 -57.323729 2.422159 4.480153 -2.169353 -38.970696 7.091607 0.000000 0.000000 0.000000 -5.397212 0.921217 5.169861 32.533236 1.312458 3.375720 56.214878 5.249749 14.413163 -3.626170 20.698584 -3.378231 0.000000 0.000000 0.000000 
51.874477 80.504951 -90.124504 -179.694682 -72.181262 179.490555 -3.784646 -2.431581 9.464899 16.205729 1.679721 -28.257912 8.589324 10.506563 31.467546 -0.785653 -1.101774 2.657501 0.000000 0.000000 0.000000 0.427765 -4.433562 8.881958 3.042875 -0.376040 -20.823816 0.328906 3.980443 28.654419 6.778220 8.986583 -10.052682 0.000000 0.000000 0.000000 0.336258 0.060714 -3.787730 1.389636 1.796011 -5.423937 -2.056406 -2.605085 8.396302 -0.054652 0.087731 -0.015512 -2.333261 -1.109288 8.652049 -1.546640 -2.335771 -0.193265 0.000000 0.000000 0.000000 -0.309110 -0.594595 5.716752 -5.267234 -2.407566 5.486662 -56.469853 0.415535 4.487027 -2.786698 -41.006608 7.516773 0.000000 0.000000 0.000000 -5.426610 0.899673 5.051405 32.370766 1.151406 3.694582 56.347435 3.227438 15.615605 -3.678543 21.223349 -3.244843 0.000000 0.000000 0.000000 
51.513020 80.499443 -89.398422 -179.254299 -73.290245 179.007442 -3.837045 -2.022140 8.797848 14.941811 4.639348 -26.581505 9.219564 11.174774 28.952725 -0.319312 -1.112759 2.617566 0.000000 0.000000 0.000000 0.205650 -4.106369 8.910579 2.839087 -1.054541 -20.544828 0.101944 3.942788 28.435092 7.356936 8.808734 -9.928139 0.000000 0.000000 0.000000 0.241863 0.316852 -3.809875 1.381594 1.624968 -5.369807 -2.096423 -2.660806 8.374378 0.005230 0.077398 -0.026424 -2.309971 -1.183794 8.590431 -1.515237 -2.191870 -0.193563 0.000000 0.000000 0.000000 -0.349480 -0.689954 5.672236 -5.112037 -2.769792 5.659226 -55.621427 -1.640965 4.829569 -3.434505 -43.526057 7.881991 0.000000 0.000000 0.000000 -5.431615 0.776927 4.972799 32.043201 1.064063 3.963418 56.355741 1.307389 17.730990 -3.760487 22.128831 -2.906225 0.000000 0.000000 0.000000 
51.077190 80.486740 -88.515701 -179.354060 -74.535396 179.237483 -3.808254 -1.928604 8.877872 13.853210 6.223478 -26.272410 9.429141 11.074657 27.140259 -0.209390 -1.477640 2.089450 0.000000 0.000000 0.000000 -0.051728 -3.818544 8.771659 2.518715 -1.642943 -20.207813 -0.119427 4.027912 28.126811 8.024128 8.710340 -10.091729 0.000000 0.000000 0.000000 0.082994 0.427458 -4.065137 1.258163 1.489289 -5.352973 -2.060836 -2.700151 8.344778 -0.056810 0.026781 -0.008026 -2.375266 -1.330465 8.654898 -1.421535 -2.159975 -0.154879 0.000000 0.000000 0.000000 -0.415012 -0.722153 5.723748 -4.848410 -3.100191 5.729903 -54.902573 -3.556923 5.140562 -4.121071 -46.388606 8.317053 0.000000 0.000000 0.000000 -5.489091 0.729240 5.009145 31.818477 1.193929 4.303191 56.069566 -0.395907 20.731381 -3.801208 23.293100 -2.489548 0.000000 0.000000 0.000000 
